<svg width="196" height="56" viewBox="0 0 196 56" fill="none" xmlns="http://www.w3.org/2000/svg">
<rect width="196" height="56" rx="28" fill="url(#paint0_linear_2_309)"/>
<path d="M45.6609 22.768C46.8449 22.768 47.8796 23.0027 48.7649 23.472C49.6503 23.9413 50.3329 24.6027 50.8129 25.456C51.3036 26.2987 51.5489 27.2747 51.5489 28.384C51.5489 29.4827 51.3036 30.4587 50.8129 31.312C50.3329 32.1653 49.6449 32.8267 48.7489 33.296C47.8636 33.7653 46.8343 34 45.6609 34H41.4529V22.768H45.6609ZM45.4849 31.632C46.5196 31.632 47.3249 31.3493 47.9009 30.784C48.4769 30.2187 48.7649 29.4187 48.7649 28.384C48.7649 27.3493 48.4769 26.544 47.9009 25.968C47.3249 25.392 46.5196 25.104 45.4849 25.104H44.1889V31.632H45.4849ZM57.1419 34.128C56.2673 34.128 55.4779 33.9413 54.7739 33.568C54.0806 33.1947 53.5313 32.6613 53.1259 31.968C52.7313 31.2747 52.5339 30.464 52.5339 29.536C52.5339 28.6187 52.7366 27.8133 53.1419 27.12C53.5473 26.416 54.1019 25.8773 54.8059 25.504C55.5099 25.1307 56.2993 24.944 57.1739 24.944C58.0486 24.944 58.8379 25.1307 59.5419 25.504C60.2459 25.8773 60.8006 26.416 61.2059 27.12C61.6113 27.8133 61.8139 28.6187 61.8139 29.536C61.8139 30.4533 61.6059 31.264 61.1899 31.968C60.7846 32.6613 60.2246 33.1947 59.5099 33.568C58.8059 33.9413 58.0166 34.128 57.1419 34.128ZM57.1419 31.76C57.6646 31.76 58.1073 31.568 58.4699 31.184C58.8433 30.8 59.0299 30.2507 59.0299 29.536C59.0299 28.8213 58.8486 28.272 58.4859 27.888C58.1339 27.504 57.6966 27.312 57.1739 27.312C56.6406 27.312 56.1979 27.504 55.8459 27.888C55.4939 28.2613 55.3179 28.8107 55.3179 29.536C55.3179 30.2507 55.4886 30.8 55.8299 31.184C56.1819 31.568 56.6193 31.76 57.1419 31.76ZM76.0814 25.072L73.6654 34H70.6414L69.2334 28.208L67.7774 34H64.7694L62.3374 25.072H65.0734L66.3374 31.456L67.8414 25.072H70.7374L72.2574 31.424L73.5054 25.072H76.0814ZM82.5648 24.976C83.6101 24.976 84.4421 25.3173 85.0608 26C85.6901 26.672 86.0048 27.6 86.0048 28.784V34H83.2848V29.152C83.2848 28.5547 83.1301 28.0907 82.8208 27.76C82.5115 27.4293 82.0955 27.264 81.5728 27.264C81.0501 27.264 80.6341 27.4293 80.3248 27.76C80.0155 28.0907 79.8608 28.5547 79.8608 29.152V34H77.1248V25.072H79.8608V26.256C80.1381 25.8613 80.5115 25.552 80.9808 25.328C81.4501 25.0933 81.9781 24.976 82.5648 24.976ZM90.6421 22.16V34H87.9061V22.16H90.6421ZM96.6888 34.128C95.8141 34.128 95.0248 33.9413 94.3208 33.568C93.6275 33.1947 93.0781 32.6613 92.6728 31.968C92.2781 31.2747 92.0808 30.464 92.0808 29.536C92.0808 28.6187 92.2835 27.8133 92.6888 27.12C93.0941 26.416 93.6488 25.8773 94.3528 25.504C95.0568 25.1307 95.8461 24.944 96.7208 24.944C97.5955 24.944 98.3848 25.1307 99.0888 25.504C99.7928 25.8773 100.347 26.416 100.753 27.12C101.158 27.8133 101.361 28.6187 101.361 29.536C101.361 30.4533 101.153 31.264 100.737 31.968C100.331 32.6613 99.7715 33.1947 99.0568 33.568C98.3528 33.9413 97.5635 34.128 96.6888 34.128ZM96.6888 31.76C97.2115 31.76 97.6541 31.568 98.0168 31.184C98.3901 30.8 98.5768 30.2507 98.5768 29.536C98.5768 28.8213 98.3955 28.272 98.0328 27.888C97.6808 27.504 97.2435 27.312 96.7208 27.312C96.1875 27.312 95.7448 27.504 95.3928 27.888C95.0408 28.2613 94.8648 28.8107 94.8648 29.536C94.8648 30.2507 95.0355 30.8 95.3768 31.184C95.7288 31.568 96.1661 31.76 96.6888 31.76ZM102.268 29.52C102.268 28.6027 102.439 27.7973 102.78 27.104C103.132 26.4107 103.607 25.8773 104.204 25.504C104.802 25.1307 105.468 24.944 106.204 24.944C106.834 24.944 107.383 25.072 107.852 25.328C108.332 25.584 108.7 25.92 108.956 26.336V25.072H111.692V34H108.956V32.736C108.69 33.152 108.316 33.488 107.836 33.744C107.367 34 106.818 34.128 106.188 34.128C105.463 34.128 104.802 33.9413 104.204 33.568C103.607 33.184 103.132 32.6453 102.78 31.952C102.439 31.248 102.268 30.4373 102.268 29.52ZM108.956 29.536C108.956 28.8533 108.764 28.3147 108.38 27.92C108.007 27.5253 107.548 27.328 107.004 27.328C106.46 27.328 105.996 27.5253 105.612 27.92C105.239 28.304 105.052 28.8373 105.052 29.52C105.052 30.2027 105.239 30.7467 105.612 31.152C105.996 31.5467 106.46 31.744 107.004 31.744C107.548 31.744 108.007 31.5467 108.38 31.152C108.764 30.7573 108.956 30.2187 108.956 29.536ZM113.128 29.52C113.128 28.6027 113.298 27.7973 113.64 27.104C113.992 26.4107 114.466 25.8773 115.064 25.504C115.661 25.1307 116.328 24.944 117.064 24.944C117.65 24.944 118.184 25.0667 118.664 25.312C119.154 25.5573 119.538 25.888 119.816 26.304V22.16H122.552V34H119.816V32.72C119.56 33.1467 119.192 33.488 118.712 33.744C118.242 34 117.693 34.128 117.064 34.128C116.328 34.128 115.661 33.9413 115.064 33.568C114.466 33.184 113.992 32.6453 113.64 31.952C113.298 31.248 113.128 30.4373 113.128 29.52ZM119.816 29.536C119.816 28.8533 119.624 28.3147 119.24 27.92C118.866 27.5253 118.408 27.328 117.864 27.328C117.32 27.328 116.856 27.5253 116.472 27.92C116.098 28.304 115.912 28.8373 115.912 29.52C115.912 30.2027 116.098 30.7467 116.472 31.152C116.856 31.5467 117.32 31.744 117.864 31.744C118.408 31.744 118.866 31.5467 119.24 31.152C119.624 30.7573 119.816 30.2187 119.816 29.536Z" fill="white"/>
<path d="M151 31C150.448 31 150 31.4477 150 32V34H138V32C138 31.4477 137.552 31 137 31C136.448 31 136 31.4477 136 32V34C136 35.1 136.9 36 138 36H150C151.1 36 152 35.1 152 34V32C152 31.4477 151.552 31 151 31Z" fill="white"/>
<path d="M148.294 27.7057C148.684 27.3159 148.684 26.6841 148.294 26.2943C147.905 25.9051 147.274 25.9045 146.884 26.293L145 28.17V21C145 20.4477 144.552 20 144 20C143.448 20 143 20.4477 143 21V28.17L141.116 26.293C140.726 25.9045 140.095 25.9051 139.706 26.2943C139.316 26.6841 139.316 27.3159 139.706 27.7057L144 32L148.294 27.7057Z" fill="white"/>
<defs>
<linearGradient id="paint0_linear_2_309" x1="196" y1="28.0001" x2="-1.27116e-08" y2="28.0001" gradientUnits="userSpaceOnUse">
<stop stop-color="#22D1EE"/>
<stop offset="1" stop-color="#3D5AF1"/>
</linearGradient>
</defs>
</svg>
