<svg width="29" height="25" viewBox="0 0 29 25" fill="none" xmlns="http://www.w3.org/2000/svg">
<path d="M16 19L17.5 19C18.163 19 18.7989 18.7366 19.2678 18.2678C19.7366 17.799 20 17.1631 20 16.5C20 15.837 19.7366 15.2011 19.2678 14.7323C18.7989 14.2634 18.163 14 17.5 14L25.5 14C26.163 14 26.7989 13.7366 27.2678 13.2678C27.7366 12.799 28 12.1631 28 11.5C28 10.837 27.7366 10.2011 27.2678 9.73226C26.7989 9.26342 26.163 9.00003 25.5 9.00003L10.3375 9.00002L15.0875 6.26252C15.6627 5.931 16.0826 5.38457 16.2549 4.74343C16.4272 4.10229 16.3378 3.41896 16.0063 2.84378C15.6747 2.26859 15.1283 1.84865 14.4872 1.67635C13.846 1.50405 13.1627 1.5935 12.5875 1.92503C4 6.00002 1 8.47502 0.999999 14C0.999999 15.3132 1.25866 16.6136 1.7612 17.8269C2.26375 19.0401 3.00035 20.1425 3.92893 21.0711C4.85752 21.9997 5.95991 22.7363 7.17317 23.2388C8.38642 23.7414 9.68678 24 11 24L16 24C16.663 24 17.2989 23.7366 17.7678 23.2678C18.2366 22.799 18.5 22.1631 18.5 21.5C18.5 20.837 18.2366 20.2011 17.7678 19.7323C17.2989 19.2634 16.663 19 16 19V19Z" stroke="#078DF5" stroke-width="2" stroke-linecap="round" stroke-linejoin="round"/>
</svg>
